<svg width="1024" height="1024" viewBox="0 0 1024 1024" fill="none" xmlns="http://www.w3.org/2000/svg">
  <rect width="1024" height="1024" rx="224" fill="#6366F1"/>
  <path d="M512 256C370.6 256 256 370.6 256 512s114.6 256 256 256 256-114.6 256-256-114.6-256-256-256zm85.3 346.7h-74.7v74.7c0 11.8-9.5 21.3-21.3 21.3s-21.3-9.5-21.3-21.3v-74.7h-74.7c-11.8 0-21.3-9.5-21.3-21.3s9.5-21.3 21.3-21.3H480v-74.7c0-11.8 9.5-21.3 21.3-21.3s21.3 9.5 21.3 21.3v74.7h74.7c11.8 0 21.3 9.5 21.3 21.3s-9.5 21.3-21.3 21.3z" fill="white"/>
</svg>